# Blender 3.4.0
# www.blender.org
mtllib carrier.mtl
o carrier_mesh
v 0.005369 -0.020000 -0.046650
v 0.005369 -0.016500 -0.046650
v 0.015439 -0.016500 -0.018980
v 0.005369 0.016500 -0.046650
v 0.005369 0.020000 -0.046650
v 0.015439 0.016500 -0.018980
v 0.019734 0.020000 -0.007182
v 0.019734 -0.020000 -0.007182
v 0.003180 -0.020000 -0.051007
v 0.003180 -0.016500 -0.051007
v 0.000046 -0.020000 -0.054742
v 0.000046 -0.016500 -0.054742
v -0.003865 -0.020000 -0.057654
v -0.003865 -0.016500 -0.057654
v -0.008342 -0.020000 -0.059585
v -0.008342 -0.016500 -0.059585
v -0.013144 -0.020000 -0.060432
v -0.013144 -0.016500 -0.060432
v -0.018011 -0.020000 -0.060148
v -0.018011 -0.016500 -0.060148
v -0.022683 -0.020000 -0.058750
v -0.022683 -0.016500 -0.058750
v -0.026905 -0.020000 -0.056312
v -0.026905 -0.016500 -0.056312
v -0.030452 -0.020000 -0.052966
v -0.030452 -0.016500 -0.052966
v -0.030452 0.020000 -0.052966
v -0.030452 0.016500 -0.052966
v -0.040094 0.016500 -0.041475
v -0.040094 -0.016500 -0.041475
v -0.057449 -0.020000 -0.020792
v -0.057449 0.020000 -0.020792
v -0.060128 -0.020000 -0.016718
v -0.060128 0.020000 -0.016718
v -0.061796 -0.020000 -0.012136
v -0.061796 0.020000 -0.012136
v -0.062362 -0.020000 -0.007293
v -0.062362 0.020000 -0.007293
v -0.061796 -0.020000 -0.002450
v -0.061796 0.020000 -0.002450
v -0.060128 -0.020000 0.002132
v -0.060128 0.020000 0.002132
v -0.057449 -0.020000 0.006205
v -0.057449 0.020000 0.006205
v -0.053902 -0.020000 0.009551
v -0.053902 0.020000 0.009551
v -0.049680 -0.020000 0.011989
v -0.049680 0.020000 0.011989
v -0.045009 -0.020000 0.013388
v -0.045009 0.020000 0.013388
v -0.003647 -0.020000 0.020681
v -0.003647 0.020000 0.020681
v 0.001221 -0.020000 0.020964
v 0.001221 0.020000 0.020964
v 0.006023 -0.020000 0.020118
v 0.006023 0.020000 0.020118
v 0.010500 -0.020000 0.018187
v 0.010500 0.020000 0.018187
v 0.014411 -0.020000 0.015275
v 0.014411 0.020000 0.015275
v 0.017545 -0.020000 0.011540
v 0.017545 0.020000 0.011540
v 0.019734 -0.020000 0.007182
v 0.019734 0.020000 0.007182
v 0.020858 -0.020000 0.002438
v 0.020858 0.020000 0.002438
v 0.020858 -0.020000 -0.002438
v 0.020858 0.020000 -0.002438
v 0.003180 0.016500 -0.051007
v 0.003180 0.020000 -0.051007
v 0.000046 0.016500 -0.054742
v 0.000046 0.020000 -0.054742
v -0.003865 0.016500 -0.057654
v -0.003865 0.020000 -0.057654
v -0.008342 0.016500 -0.059585
v -0.008342 0.020000 -0.059585
v -0.013144 0.016500 -0.060432
v -0.013144 0.020000 -0.060432
v -0.018011 0.016500 -0.060148
v -0.018011 0.020000 -0.060148
v -0.022683 0.016500 -0.058750
v -0.022683 0.020000 -0.058750
v -0.026905 0.016500 -0.056312
v -0.026905 0.020000 -0.056312
v -0.053619 0.025000 -0.017578
v -0.055660 0.025000 -0.014474
v -0.044140 0.025000 0.008464
v -0.056931 0.025000 -0.010983
v -0.000997 0.025000 -0.048259
v -0.023919 0.025000 -0.052301
v 0.000670 0.025000 -0.044939
v -0.026622 0.025000 -0.049752
v -0.013435 0.025000 -0.055440
v -0.017143 0.025000 -0.055224
v -0.009776 0.025000 -0.054795
v -0.006365 0.025000 -0.053323
v -0.003385 0.025000 -0.051105
v -0.020702 0.025000 -0.054159
v -0.057362 0.025000 -0.007293
v -0.056931 0.025000 -0.003603
v -0.055660 0.025000 -0.000112
v -0.053619 0.025000 0.002991
v -0.050916 0.025000 0.005541
v -0.047699 0.025000 0.007398
v -0.002778 0.025000 0.015757
v 0.015035 0.025000 -0.005472
v 0.000930 0.025000 0.015973
v 0.004589 0.025000 0.015328
v 0.015892 0.025000 0.001857
v 0.010980 0.025000 0.011638
v 0.015035 0.025000 0.005472
v 0.013368 0.025000 0.008792
v 0.008000 0.025000 0.013856
v 0.015892 0.025000 -0.001857
v 0.000670 -0.025000 -0.044939
v 0.015035 -0.025000 -0.005472
v -0.002778 -0.025000 0.015757
v 0.015892 -0.025000 -0.001857
v 0.015892 -0.025000 0.001857
v -0.053619 -0.025000 -0.017578
v -0.026622 -0.025000 -0.049752
v -0.044140 -0.025000 0.008464
v -0.023919 -0.025000 -0.052301
v -0.000997 -0.025000 -0.048259
v -0.003385 -0.025000 -0.051105
v 0.015035 -0.025000 0.005472
v 0.013368 -0.025000 0.008792
v 0.010980 -0.025000 0.011638
v -0.020702 -0.025000 -0.054159
v -0.017143 -0.025000 -0.055224
v -0.013435 -0.025000 -0.055440
v -0.009776 -0.025000 -0.054795
v -0.006365 -0.025000 -0.053323
v -0.053619 -0.025000 0.002991
v -0.055660 -0.025000 -0.000112
v -0.055660 -0.025000 -0.014474
v 0.008000 -0.025000 0.013856
v 0.004589 -0.025000 0.015328
v 0.000930 -0.025000 0.015973
v -0.050916 -0.025000 0.005541
v -0.047699 -0.025000 0.007398
v -0.056931 -0.025000 -0.003603
v -0.057362 -0.025000 -0.007293
v -0.056931 -0.025000 -0.010983
v -0.016970 0.016500 -0.024695
v -0.016970 -0.016500 -0.024695
v -0.024007 -0.016500 -0.027976
v -0.024007 0.016500 -0.027976
v -0.020704 -0.016500 -0.025872
v -0.020704 0.016500 -0.025872
vn 0.9397 -0.0000 -0.3420
vn 0.8936 -0.0000 -0.4488
vn 0.7660 -0.0000 -0.6428
vn 0.5972 -0.0000 -0.8021
vn 0.3961 -0.0000 -0.9182
vn 0.1736 -0.0000 -0.9848
vn -0.0581 -0.0000 -0.9983
vn -0.2868 -0.0000 -0.9580
vn -0.5000 -0.0000 -0.8660
vn -0.6862 -0.0000 -0.7274
vn -0.7660 -0.0000 -0.6428
vn -0.8355 -0.0000 -0.5495
vn -0.9397 -0.0000 -0.3420
vn -0.9932 -0.0000 -0.1161
vn -0.9932 -0.0000 0.1161
vn -0.9397 -0.0000 0.3420
vn -0.8355 -0.0000 0.5495
vn -0.6862 -0.0000 0.7274
vn -0.5000 -0.0000 0.8660
vn -0.2868 -0.0000 0.9580
vn -0.1736 -0.0000 0.9848
vn -0.0581 -0.0000 0.9983
vn 0.1736 -0.0000 0.9848
vn 0.3961 -0.0000 0.9182
vn 0.5972 -0.0000 0.8021
vn 0.7660 -0.0000 0.6428
vn 0.8936 -0.0000 0.4488
vn 0.9730 -0.0000 0.2306
vn 1.0000 -0.0000 -0.0000
vn 0.9730 -0.0000 -0.2306
vn -0.0000 1.0000 -0.0000
vn -0.0000 -1.0000 -0.0000
vn -0.5417 -0.7071 -0.4545
vn -0.2035 -0.7047 0.6797
vn -0.3548 -0.7047 0.6144
vn -0.4869 -0.7047 0.5161
vn -0.5928 -0.7047 0.3899
vn -0.6667 -0.7047 0.2427
vn -0.7047 -0.7047 0.0824
vn -0.7047 -0.7047 -0.0824
vn -0.6667 -0.7047 -0.2427
vn -0.5928 -0.7047 -0.3899
vn -0.4869 -0.7047 -0.5161
vn -0.3548 -0.7047 -0.6144
vn -0.2035 -0.7047 -0.6797
vn -0.0413 -0.7047 -0.7083
vn 0.1232 -0.7047 -0.6987
vn 0.2810 -0.7047 -0.6515
vn 0.4237 -0.7047 -0.5691
vn 0.5435 -0.7047 -0.4561
vn 0.6340 -0.7047 -0.3184
vn -0.1228 -0.7071 0.6964
vn 0.6645 -0.7071 -0.2418
vn 0.6904 -0.7047 -0.1636
vn 0.7095 -0.7047 -0.0000
vn 0.6904 -0.7047 0.1636
vn 0.6340 -0.7047 0.3184
vn 0.5435 -0.7047 0.4561
vn 0.4237 -0.7047 0.5691
vn 0.2810 -0.7047 0.6515
vn 0.1232 -0.7047 0.6987
vn -0.0413 -0.7047 0.7083
vn -0.5417 0.7071 -0.4545
vn -0.5928 0.7047 -0.3899
vn -0.6667 0.7047 -0.2427
vn -0.7047 0.7047 -0.0824
vn -0.7047 0.7047 0.0824
vn -0.6667 0.7047 0.2427
vn -0.5928 0.7047 0.3899
vn -0.4869 0.7047 0.5161
vn -0.3548 0.7047 0.6144
vn -0.2035 0.7047 0.6797
vn 0.6340 0.7047 -0.3184
vn 0.5435 0.7047 -0.4561
vn 0.4237 0.7047 -0.5691
vn 0.2810 0.7047 -0.6515
vn 0.1232 0.7047 -0.6987
vn -0.0413 0.7047 -0.7083
vn -0.2035 0.7047 -0.6797
vn -0.3548 0.7047 -0.6144
vn -0.4869 0.7047 -0.5161
vn -0.1228 0.7071 0.6964
vn 0.6645 0.7071 -0.2418
vn -0.0413 0.7047 0.7083
vn 0.1232 0.7047 0.6987
vn 0.2810 0.7047 0.6515
vn 0.4237 0.7047 0.5691
vn 0.5435 0.7047 0.4561
vn 0.6340 0.7047 0.3184
vn 0.6904 0.7047 0.1636
vn 0.7095 0.7047 -0.0000
vn 0.6904 0.7047 -0.1636
vn 0.6428 -0.0000 -0.7660
vn 0.5373 -0.0000 -0.8434
vn 0.3007 -0.0000 -0.9537
s 0
f 1//1 2//1 3//1
f 4//1 5//1 6//1
f 6//1 5//1 7//1
f 6//1 7//1 3//1
f 3//1 7//1 8//1
f 3//1 8//1 1//1
f 2//2 1//2 9//2
f 2//2 9//2 10//2
f 10//3 9//3 11//3
f 10//3 11//3 12//3
f 12//4 11//4 13//4
f 12//4 13//4 14//4
f 14//5 13//5 15//5
f 14//5 15//5 16//5
f 16//6 15//6 17//6
f 16//6 17//6 18//6
f 18//7 17//7 19//7
f 18//7 19//7 20//7
f 20//8 19//8 21//8
f 20//8 21//8 22//8
f 22//9 21//9 23//9
f 22//9 23//9 24//9
f 24//10 23//10 25//10
f 24//10 25//10 26//10
f 27//11 28//11 29//11
f 26//11 25//11 30//11
f 30//11 25//11 31//11
f 30//11 31//11 29//11
f 29//11 31//11 32//11
f 29//11 32//11 27//11
f 32//12 31//12 33//12
f 32//12 33//12 34//12
f 34//13 33//13 35//13
f 34//13 35//13 36//13
f 36//14 35//14 37//14
f 36//14 37//14 38//14
f 38//15 37//15 39//15
f 38//15 39//15 40//15
f 40//16 39//16 41//16
f 40//16 41//16 42//16
f 42//17 41//17 43//17
f 42//17 43//17 44//17
f 44//18 43//18 45//18
f 44//18 45//18 46//18
f 46//19 45//19 47//19
f 46//19 47//19 48//19
f 48//20 47//20 49//20
f 48//20 49//20 50//20
f 51//21 52//21 49//21
f 49//21 52//21 50//21
f 52//22 51//22 53//22
f 52//22 53//22 54//22
f 54//23 53//23 55//23
f 54//23 55//23 56//23
f 56//24 55//24 57//24
f 56//24 57//24 58//24
f 58//25 57//25 59//25
f 58//25 59//25 60//25
f 60//26 59//26 61//26
f 60//26 61//26 62//26
f 62//27 61//27 63//27
f 62//27 63//27 64//27
f 64//28 63//28 65//28
f 64//28 65//28 66//28
f 66//29 65//29 67//29
f 66//29 67//29 68//29
f 68//30 67//30 8//30
f 68//30 8//30 7//30
f 5//2 4//2 69//2
f 5//2 69//2 70//2
f 70//3 69//3 71//3
f 70//3 71//3 72//3
f 72//4 71//4 73//4
f 72//4 73//4 74//4
f 74//5 73//5 75//5
f 74//5 75//5 76//5
f 76//6 75//6 77//6
f 76//6 77//6 78//6
f 78//7 77//7 79//7
f 78//7 79//7 80//7
f 80//8 79//8 81//8
f 80//8 81//8 82//8
f 82//9 81//9 83//9
f 82//9 83//9 84//9
f 84//10 83//10 28//10
f 84//10 28//10 27//10
f 85//31 86//31 87//31
f 87//31 86//31 88//31
f 89//31 90//31 91//31
f 91//31 90//31 92//31
f 91//31 92//31 85//31
f 93//31 94//31 95//31
f 95//31 94//31 96//31
f 89//31 97//31 90//31
f 90//31 97//31 96//31
f 90//31 96//31 98//31
f 98//31 96//31 94//31
f 88//31 99//31 87//31
f 87//31 99//31 100//31
f 87//31 100//31 101//31
f 101//31 102//31 87//31
f 87//31 102//31 103//31
f 87//31 103//31 104//31
f 85//31 87//31 91//31
f 91//31 87//31 105//31
f 91//31 105//31 106//31
f 106//31 105//31 107//31
f 106//31 107//31 108//31
f 109//31 110//31 111//31
f 111//31 110//31 112//31
f 108//31 113//31 106//31
f 106//31 113//31 110//31
f 106//31 110//31 114//31
f 114//31 110//31 109//31
f 115//32 116//32 117//32
f 117//32 116//32 118//32
f 117//32 118//32 119//32
f 120//32 121//32 122//32
f 122//32 121//32 123//32
f 115//32 117//32 124//32
f 124//32 117//32 122//32
f 124//32 122//32 125//32
f 126//32 127//32 128//32
f 123//32 129//32 122//32
f 122//32 129//32 130//32
f 122//32 130//32 131//32
f 131//32 132//32 122//32
f 122//32 132//32 133//32
f 122//32 133//32 125//32
f 134//32 135//32 136//32
f 128//32 137//32 126//32
f 126//32 137//32 138//32
f 126//32 138//32 119//32
f 119//32 138//32 139//32
f 119//32 139//32 117//32
f 134//32 136//32 140//32
f 120//32 122//32 136//32
f 136//32 122//32 141//32
f 136//32 141//32 140//32
f 142//32 143//32 135//32
f 135//32 143//32 144//32
f 135//32 144//32 136//32
f 120//33 31//33 121//33
f 121//33 31//33 25//33
f 122//34 49//34 47//34
f 122//34 47//34 141//34
f 141//35 47//35 45//35
f 141//35 45//35 140//35
f 140//36 45//36 43//36
f 140//36 43//36 134//36
f 134//37 43//37 41//37
f 134//37 41//37 135//37
f 135//38 41//38 39//38
f 135//38 39//38 142//38
f 142//39 39//39 37//39
f 142//39 37//39 143//39
f 143//40 37//40 35//40
f 143//40 35//40 144//40
f 144//41 35//41 33//41
f 144//41 33//41 136//41
f 136//42 33//42 31//42
f 136//42 31//42 120//42
f 121//43 25//43 23//43
f 121//43 23//43 123//43
f 123//44 23//44 21//44
f 123//44 21//44 129//44
f 129//45 21//45 19//45
f 129//45 19//45 130//45
f 130//46 19//46 17//46
f 130//46 17//46 131//46
f 131//47 17//47 15//47
f 131//47 15//47 132//47
f 132//48 15//48 13//48
f 132//48 13//48 133//48
f 133//49 13//49 11//49
f 133//49 11//49 125//49
f 125//50 11//50 9//50
f 125//50 9//50 124//50
f 124//51 9//51 1//51
f 124//51 1//51 115//51
f 117//52 51//52 122//52
f 122//52 51//52 49//52
f 8//53 116//53 1//53
f 1//53 116//53 115//53
f 116//54 8//54 67//54
f 116//54 67//54 118//54
f 118//55 67//55 65//55
f 118//55 65//55 119//55
f 119//56 65//56 63//56
f 119//56 63//56 126//56
f 126//57 63//57 61//57
f 126//57 61//57 127//57
f 127//58 61//58 59//58
f 127//58 59//58 128//58
f 128//59 59//59 57//59
f 128//59 57//59 137//59
f 137//60 57//60 55//60
f 137//60 55//60 138//60
f 138//61 55//61 53//61
f 138//61 53//61 139//61
f 139//62 53//62 51//62
f 139//62 51//62 117//62
f 32//63 85//63 27//63
f 27//63 85//63 92//63
f 85//64 32//64 34//64
f 85//64 34//64 86//64
f 86//65 34//65 36//65
f 86//65 36//65 88//65
f 88//66 36//66 38//66
f 88//66 38//66 99//66
f 99//67 38//67 40//67
f 99//67 40//67 100//67
f 100//68 40//68 42//68
f 100//68 42//68 101//68
f 101//69 42//69 44//69
f 101//69 44//69 102//69
f 102//70 44//70 46//70
f 102//70 46//70 103//70
f 103//71 46//71 48//71
f 103//71 48//71 104//71
f 104//72 48//72 50//72
f 104//72 50//72 87//72
f 91//73 5//73 70//73
f 91//73 70//73 89//73
f 89//74 70//74 72//74
f 89//74 72//74 97//74
f 97//75 72//75 74//75
f 97//75 74//75 96//75
f 96//76 74//76 76//76
f 96//76 76//76 95//76
f 95//77 76//77 78//77
f 95//77 78//77 93//77
f 93//78 78//78 80//78
f 93//78 80//78 94//78
f 94//79 80//79 82//79
f 94//79 82//79 98//79
f 98//80 82//80 84//80
f 98//80 84//80 90//80
f 90//81 84//81 27//81
f 90//81 27//81 92//81
f 52//82 105//82 50//82
f 50//82 105//82 87//82
f 106//83 7//83 91//83
f 91//83 7//83 5//83
f 105//84 52//84 54//84
f 105//84 54//84 107//84
f 107//85 54//85 56//85
f 107//85 56//85 108//85
f 108//86 56//86 58//86
f 108//86 58//86 113//86
f 113//87 58//87 60//87
f 113//87 60//87 110//87
f 110//88 60//88 62//88
f 110//88 62//88 112//88
f 112//89 62//89 64//89
f 112//89 64//89 111//89
f 111//90 64//90 66//90
f 111//90 66//90 109//90
f 109//91 66//91 68//91
f 109//91 68//91 114//91
f 114//92 68//92 7//92
f 114//92 7//92 106//92
f 145//6 6//6 146//6
f 146//6 6//6 3//6
f 147//93 30//93 148//93
f 148//93 30//93 29//93
f 146//31 3//31 2//31
f 146//31 2//31 149//31
f 22//31 24//31 147//31
f 147//31 24//31 26//31
f 147//31 26//31 30//31
f 12//31 14//31 147//31
f 147//31 14//31 16//31
f 149//31 2//31 147//31
f 147//31 2//31 10//31
f 147//31 10//31 12//31
f 16//31 18//31 147//31
f 147//31 18//31 20//31
f 147//31 20//31 22//31
f 4//32 6//32 28//32
f 28//32 6//32 145//32
f 145//32 150//32 28//32
f 28//32 150//32 148//32
f 28//32 148//32 29//32
f 28//32 83//32 4//32
f 4//32 83//32 81//32
f 4//32 81//32 69//32
f 69//32 81//32 71//32
f 79//32 77//32 75//32
f 79//32 75//32 81//32
f 81//32 75//32 73//32
f 81//32 73//32 71//32
f 147//94 148//94 149//94
f 149//94 148//94 150//94
f 149//95 150//95 146//95
f 146//95 150//95 145//95
