# Blender 3.4.0
# www.blender.org
mtllib carrier.mtl
o carrier_mesh
v -0.025873 -0.020000 -0.039187
v -0.025873 -0.016500 -0.039187
v -0.000373 -0.016500 -0.024464
v -0.025873 0.016500 -0.039187
v -0.025873 0.020000 -0.039187
v -0.000373 0.016500 -0.024464
v 0.010500 0.020000 -0.018187
v 0.010500 -0.020000 -0.018187
v -0.028506 -0.020000 -0.040471
v -0.028506 -0.016500 -0.040471
v -0.031293 -0.020000 -0.041376
v -0.031293 -0.016500 -0.041376
v -0.034178 -0.020000 -0.041885
v -0.034178 -0.016500 -0.041885
v -0.037106 -0.020000 -0.041987
v -0.037106 -0.016500 -0.041987
v -0.040020 -0.020000 -0.041681
v -0.040020 -0.016500 -0.041681
v -0.042862 -0.020000 -0.040972
v -0.042862 -0.016500 -0.040972
v -0.045579 -0.020000 -0.039875
v -0.045579 -0.016500 -0.039875
v -0.048116 -0.020000 -0.038410
v -0.048116 -0.016500 -0.038410
v -0.050425 -0.020000 -0.036606
v -0.050425 -0.016500 -0.036606
v -0.052460 -0.020000 -0.034499
v -0.052460 -0.016500 -0.034499
v -0.054182 -0.020000 -0.032128
v -0.054182 -0.016500 -0.032128
v -0.055558 -0.020000 -0.029541
v -0.055558 -0.016500 -0.029541
v -0.056560 -0.020000 -0.026788
v -0.056560 -0.016500 -0.026788
v -0.057169 -0.020000 -0.023923
v -0.057169 -0.016500 -0.023923
v -0.057373 -0.020000 -0.021000
v -0.057373 -0.016500 -0.021000
v -0.057373 0.020000 -0.021000
v -0.057373 0.016500 -0.021000
v -0.057373 0.016500 -0.006000
v -0.057373 -0.016500 -0.006000
v -0.057373 -0.020000 0.021000
v -0.057373 0.020000 0.021000
v -0.057169 -0.020000 0.023923
v -0.057169 0.020000 0.023923
v -0.056560 -0.020000 0.026788
v -0.056560 0.020000 0.026788
v -0.055558 -0.020000 0.029541
v -0.055558 0.020000 0.029541
v -0.054182 -0.020000 0.032128
v -0.054182 0.020000 0.032128
v -0.052460 -0.020000 0.034499
v -0.052460 0.020000 0.034499
v -0.050425 -0.020000 0.036606
v -0.050425 0.020000 0.036606
v -0.048116 -0.020000 0.038410
v -0.048116 0.020000 0.038410
v -0.045579 -0.020000 0.039875
v -0.045579 0.020000 0.039875
v -0.042862 -0.020000 0.040972
v -0.042862 0.020000 0.040972
v -0.040020 -0.020000 0.041681
v -0.040020 0.020000 0.041681
v -0.037106 -0.020000 0.041987
v -0.037106 0.020000 0.041987
v -0.034178 -0.020000 0.041885
v -0.034178 0.020000 0.041885
v -0.031293 -0.020000 0.041376
v -0.031293 0.020000 0.041376
v -0.028506 -0.020000 0.040471
v -0.028506 0.020000 0.040471
v -0.025873 -0.020000 0.039187
v -0.025873 0.020000 0.039187
v 0.010500 -0.020000 0.018187
v 0.010500 0.020000 0.018187
v 0.012929 -0.020000 0.016548
v 0.012929 0.020000 0.016548
v 0.015106 -0.020000 0.014588
v 0.015106 0.020000 0.014588
v 0.016989 -0.020000 0.012343
v 0.016989 0.020000 0.012343
v 0.018542 -0.020000 0.009859
v 0.018542 0.020000 0.009859
v 0.019734 -0.020000 0.007182
v 0.019734 0.020000 0.007182
v 0.020541 -0.020000 0.004366
v 0.020541 0.020000 0.004366
v 0.020949 -0.020000 0.001465
v 0.020949 0.020000 0.001465
v 0.020949 -0.020000 -0.001465
v 0.020949 0.020000 -0.001465
v 0.020541 -0.020000 -0.004366
v 0.020541 0.020000 -0.004366
v 0.019734 -0.020000 -0.007182
v 0.019734 0.020000 -0.007182
v 0.018542 -0.020000 -0.009859
v 0.018542 0.020000 -0.009859
v 0.016989 -0.020000 -0.012343
v 0.016989 0.020000 -0.012343
v 0.015106 -0.020000 -0.014588
v 0.015106 0.020000 -0.014588
v 0.012929 -0.020000 -0.016548
v 0.012929 0.020000 -0.016548
v -0.028506 0.016500 -0.040471
v -0.028506 0.020000 -0.040471
v -0.031293 0.016500 -0.041376
v -0.031293 0.020000 -0.041376
v -0.034178 0.016500 -0.041885
v -0.034178 0.020000 -0.041885
v -0.037106 0.016500 -0.041987
v -0.037106 0.020000 -0.041987
v -0.040020 0.016500 -0.041681
v -0.040020 0.020000 -0.041681
v -0.042862 0.016500 -0.040972
v -0.042862 0.020000 -0.040972
v -0.045579 0.016500 -0.039875
v -0.045579 0.020000 -0.039875
v -0.048116 0.016500 -0.038410
v -0.048116 0.020000 -0.038410
v -0.050425 0.016500 -0.036606
v -0.050425 0.020000 -0.036606
v -0.052460 0.016500 -0.034499
v -0.052460 0.020000 -0.034499
v -0.054182 0.016500 -0.032128
v -0.054182 0.020000 -0.032128
v -0.055558 0.016500 -0.029541
v -0.055558 0.020000 -0.029541
v -0.056560 0.016500 -0.026788
v -0.056560 0.020000 -0.026788
v -0.057169 0.016500 -0.023923
v -0.057169 0.020000 -0.023923
v -0.028373 0.025000 0.034856
v 0.008000 0.025000 0.013856
v -0.052373 0.025000 0.021000
v -0.030379 0.025000 0.035835
v 0.012944 0.025000 0.009405
v 0.014127 0.025000 0.007512
v 0.008000 0.025000 -0.013856
v 0.011509 0.025000 0.011115
v -0.028373 0.025000 -0.034856
v -0.030379 0.025000 -0.035835
v 0.009851 0.025000 0.012608
v 0.015035 0.025000 0.005472
v 0.015650 0.025000 0.003327
v 0.015961 0.025000 0.001116
v 0.015035 0.025000 -0.005472
v 0.014127 0.025000 -0.007512
v 0.012944 0.025000 -0.009405
v -0.032502 0.025000 -0.036525
v -0.034701 0.025000 -0.036912
v -0.036931 0.025000 -0.036990
v -0.039151 0.025000 -0.036757
v -0.041317 0.025000 -0.036217
v -0.043387 0.025000 -0.035381
v -0.045320 0.025000 -0.034265
v -0.047079 0.025000 -0.032890
v -0.048630 0.025000 -0.031285
v -0.036931 0.025000 0.036990
v -0.034701 0.025000 0.036912
v -0.032502 0.025000 0.036525
v 0.015961 0.025000 -0.001116
v 0.015650 0.025000 -0.003327
v 0.009851 0.025000 -0.012608
v 0.011509 0.025000 -0.011115
v -0.049942 0.025000 -0.029479
v -0.050990 0.025000 -0.027508
v -0.051753 0.025000 -0.025410
v -0.047079 0.025000 0.032890
v -0.052217 0.025000 0.023227
v -0.051753 0.025000 0.025410
v -0.050990 0.025000 0.027508
v -0.049942 0.025000 0.029479
v -0.048630 0.025000 0.031285
v -0.045320 0.025000 0.034265
v -0.043387 0.025000 0.035381
v -0.052217 0.025000 -0.023227
v -0.052373 0.025000 -0.021000
v -0.041317 0.025000 0.036217
v -0.039151 0.025000 0.036757
v 0.009851 -0.025000 -0.012608
v 0.011509 -0.025000 0.011115
v 0.008000 -0.025000 -0.013856
v 0.009851 -0.025000 0.012608
v 0.008000 -0.025000 0.013856
v -0.034701 -0.025000 -0.036912
v -0.032502 -0.025000 -0.036525
v -0.028373 -0.025000 0.034856
v -0.030379 -0.025000 -0.035835
v -0.028373 -0.025000 -0.034856
v -0.052373 -0.025000 -0.021000
v -0.052373 -0.025000 0.021000
v -0.030379 -0.025000 0.035835
v -0.050990 -0.025000 -0.027508
v -0.049942 -0.025000 -0.029479
v 0.011509 -0.025000 -0.011115
v 0.012944 -0.025000 -0.009405
v 0.014127 -0.025000 -0.007512
v -0.052217 -0.025000 -0.023227
v -0.051753 -0.025000 -0.025410
v -0.041317 -0.025000 -0.036217
v -0.043387 -0.025000 -0.035381
v -0.045320 -0.025000 -0.034265
v -0.032502 -0.025000 0.036525
v -0.034701 -0.025000 0.036912
v -0.036931 -0.025000 0.036990
v -0.043387 -0.025000 0.035381
v -0.045320 -0.025000 0.034265
v -0.049942 -0.025000 0.029479
v -0.047079 -0.025000 0.032890
v -0.048630 -0.025000 0.031285
v -0.041317 -0.025000 0.036217
v -0.050990 -0.025000 0.027508
v -0.051753 -0.025000 0.025410
v 0.015035 -0.025000 -0.005472
v 0.015650 -0.025000 -0.003327
v 0.015961 -0.025000 -0.001116
v 0.015650 -0.025000 0.003327
v 0.015035 -0.025000 0.005472
v 0.015961 -0.025000 0.001116
v 0.014127 -0.025000 0.007512
v 0.012944 -0.025000 0.009405
v -0.048630 -0.025000 -0.031285
v -0.047079 -0.025000 -0.032890
v -0.039151 -0.025000 -0.036757
v -0.036931 -0.025000 -0.036990
v -0.052217 -0.025000 0.023227
v -0.039151 -0.025000 0.036757
v -0.028873 0.016500 -0.008010
v -0.028873 -0.016500 -0.008010
v -0.036373 -0.016500 -0.006000
v -0.036373 0.016500 -0.006000
v -0.031243 -0.016500 -0.006905
v -0.033768 -0.016500 -0.006228
v -0.031243 0.016500 -0.006905
v -0.033768 0.016500 -0.006228
vn 0.5000 -0.0000 -0.8660
vn 0.4384 -0.0000 -0.8988
vn 0.3090 -0.0000 -0.9511
vn 0.1736 -0.0000 -0.9848
vn 0.0349 -0.0000 -0.9994
vn -0.1045 -0.0000 -0.9945
vn -0.2419 -0.0000 -0.9703
vn -0.3746 -0.0000 -0.9272
vn -0.5000 -0.0000 -0.8660
vn -0.6157 -0.0000 -0.7880
vn -0.7193 -0.0000 -0.6947
vn -0.8090 -0.0000 -0.5878
vn -0.8829 -0.0000 -0.4695
vn -0.9397 -0.0000 -0.3420
vn -0.9781 -0.0000 -0.2079
vn -0.9976 -0.0000 -0.0698
vn -1.0000 -0.0000 -0.0000
vn -0.9976 -0.0000 0.0698
vn -0.9781 -0.0000 0.2079
vn -0.9397 -0.0000 0.3420
vn -0.8829 -0.0000 0.4695
vn -0.8090 -0.0000 0.5878
vn -0.7193 -0.0000 0.6947
vn -0.6157 -0.0000 0.7880
vn -0.5000 -0.0000 0.8660
vn -0.3746 -0.0000 0.9272
vn -0.2419 -0.0000 0.9703
vn -0.1045 -0.0000 0.9945
vn 0.0349 -0.0000 0.9994
vn 0.1736 -0.0000 0.9848
vn 0.3090 -0.0000 0.9511
vn 0.4384 -0.0000 0.8988
vn 0.5000 -0.0000 0.8660
vn 0.5592 -0.0000 0.8290
vn 0.6691 -0.0000 0.7431
vn 0.7660 -0.0000 0.6428
vn 0.8480 -0.0000 0.5299
vn 0.9135 -0.0000 0.4067
vn 0.9613 -0.0000 0.2756
vn 0.9903 -0.0000 0.1392
vn 1.0000 -0.0000 -0.0000
vn 0.9903 -0.0000 -0.1392
vn 0.9613 -0.0000 -0.2756
vn 0.9135 -0.0000 -0.4067
vn 0.8480 -0.0000 -0.5299
vn 0.7660 -0.0000 -0.6428
vn 0.6691 -0.0000 -0.7431
vn 0.5592 -0.0000 -0.8290
vn -0.0000 1.0000 -0.0000
vn -0.0000 -1.0000 -0.0000
vn -0.7071 -0.7071 -0.0000
vn 0.3104 -0.7062 0.6363
vn 0.2188 -0.7062 0.6733
vn 0.1229 -0.7062 0.6972
vn 0.0247 -0.7062 0.7075
vn -0.0740 -0.7062 0.7041
vn -0.1713 -0.7062 0.6869
vn -0.2652 -0.7062 0.6564
vn -0.3540 -0.7062 0.6131
vn -0.4359 -0.7062 0.5579
vn -0.5093 -0.7062 0.4918
vn -0.5728 -0.7062 0.4161
vn -0.6251 -0.7062 0.3324
vn -0.6653 -0.7062 0.2421
vn -0.6925 -0.7062 0.1472
vn -0.7062 -0.7062 0.0494
vn -0.7062 -0.7062 -0.0494
vn -0.6925 -0.7062 -0.1472
vn -0.6653 -0.7062 -0.2421
vn -0.6251 -0.7062 -0.3324
vn -0.5728 -0.7062 -0.4161
vn -0.5093 -0.7062 -0.4918
vn -0.4359 -0.7062 -0.5579
vn -0.3540 -0.7062 -0.6131
vn -0.2652 -0.7062 -0.6564
vn -0.1713 -0.7062 -0.6869
vn -0.0740 -0.7062 -0.7041
vn 0.0247 -0.7062 -0.7075
vn 0.1229 -0.7062 -0.6972
vn 0.2188 -0.7062 -0.6733
vn 0.3104 -0.7062 -0.6363
vn 0.3536 -0.7071 0.6124
vn 0.3536 -0.7071 -0.6124
vn 0.3959 -0.7062 -0.5869
vn 0.4737 -0.7062 -0.5261
vn 0.5423 -0.7062 -0.4551
vn 0.6004 -0.7062 -0.3752
vn 0.6468 -0.7062 -0.2880
vn 0.6805 -0.7062 -0.1951
vn 0.7011 -0.7062 -0.0985
vn 0.7080 -0.7062 -0.0000
vn 0.7011 -0.7062 0.0985
vn 0.6805 -0.7062 0.1951
vn 0.6468 -0.7062 0.2880
vn 0.6004 -0.7062 0.3752
vn 0.5423 -0.7062 0.4551
vn 0.4737 -0.7062 0.5261
vn 0.3959 -0.7062 0.5869
vn -0.7071 0.7071 -0.0000
vn -0.7062 0.7062 0.0494
vn -0.6925 0.7062 0.1472
vn -0.6653 0.7062 0.2421
vn -0.6251 0.7062 0.3324
vn -0.5728 0.7062 0.4161
vn -0.5093 0.7062 0.4918
vn -0.4359 0.7062 0.5579
vn -0.3540 0.7062 0.6131
vn -0.2652 0.7062 0.6564
vn -0.1713 0.7062 0.6869
vn -0.0740 0.7062 0.7041
vn 0.0247 0.7062 0.7075
vn 0.1229 0.7062 0.6972
vn 0.2188 0.7062 0.6733
vn 0.3104 0.7062 0.6363
vn 0.3104 0.7062 -0.6363
vn 0.2188 0.7062 -0.6733
vn 0.1229 0.7062 -0.6972
vn 0.0247 0.7062 -0.7075
vn -0.0740 0.7062 -0.7041
vn -0.1713 0.7062 -0.6869
vn -0.2652 0.7062 -0.6564
vn -0.3540 0.7062 -0.6131
vn -0.4359 0.7062 -0.5579
vn -0.5093 0.7062 -0.4918
vn -0.5728 0.7062 -0.4161
vn -0.6251 0.7062 -0.3324
vn -0.6653 0.7062 -0.2421
vn -0.6925 0.7062 -0.1472
vn -0.7062 0.7062 -0.0494
vn 0.3536 0.7071 0.6124
vn 0.3536 0.7071 -0.6124
vn 0.3959 0.7062 0.5869
vn 0.4737 0.7062 0.5261
vn 0.5423 0.7062 0.4551
vn 0.6004 0.7062 0.3752
vn 0.6468 0.7062 0.2880
vn 0.6805 0.7062 0.1951
vn 0.7011 0.7062 0.0985
vn 0.7080 0.7062 -0.0000
vn 0.7011 0.7062 -0.0985
vn 0.6805 0.7062 -0.1951
vn 0.6468 0.7062 -0.2880
vn 0.6004 0.7062 -0.3752
vn 0.5423 0.7062 -0.4551
vn 0.4737 0.7062 -0.5261
vn 0.3959 0.7062 -0.5869
vn -0.0000 -0.0000 -1.0000
vn -0.0872 -0.0000 -0.9962
vn -0.2588 -0.0000 -0.9659
vn -0.4226 -0.0000 -0.9063
s 0
f 1//1 2//1 3//1
f 4//1 5//1 6//1
f 6//1 5//1 7//1
f 6//1 7//1 3//1
f 3//1 7//1 8//1
f 3//1 8//1 1//1
f 2//2 1//2 9//2
f 2//2 9//2 10//2
f 10//3 9//3 11//3
f 10//3 11//3 12//3
f 12//4 11//4 13//4
f 12//4 13//4 14//4
f 14//5 13//5 15//5
f 14//5 15//5 16//5
f 16//6 15//6 17//6
f 16//6 17//6 18//6
f 18//7 17//7 19//7
f 18//7 19//7 20//7
f 20//8 19//8 21//8
f 20//8 21//8 22//8
f 22//9 21//9 23//9
f 22//9 23//9 24//9
f 24//10 23//10 25//10
f 24//10 25//10 26//10
f 26//11 25//11 27//11
f 26//11 27//11 28//11
f 28//12 27//12 29//12
f 28//12 29//12 30//12
f 30//13 29//13 31//13
f 30//13 31//13 32//13
f 32//14 31//14 33//14
f 32//14 33//14 34//14
f 34//15 33//15 35//15
f 34//15 35//15 36//15
f 36//16 35//16 37//16
f 36//16 37//16 38//16
f 39//17 40//17 41//17
f 38//17 37//17 42//17
f 42//17 37//17 43//17
f 42//17 43//17 41//17
f 41//17 43//17 44//17
f 41//17 44//17 39//17
f 44//18 43//18 45//18
f 44//18 45//18 46//18
f 46//19 45//19 47//19
f 46//19 47//19 48//19
f 48//20 47//20 49//20
f 48//20 49//20 50//20
f 50//21 49//21 51//21
f 50//21 51//21 52//21
f 52//22 51//22 53//22
f 52//22 53//22 54//22
f 54//23 53//23 55//23
f 54//23 55//23 56//23
f 56//24 55//24 57//24
f 56//24 57//24 58//24
f 58//25 57//25 59//25
f 58//25 59//25 60//25
f 60//26 59//26 61//26
f 60//26 61//26 62//26
f 62//27 61//27 63//27
f 62//27 63//27 64//27
f 64//28 63//28 65//28
f 64//28 65//28 66//28
f 66//29 65//29 67//29
f 66//29 67//29 68//29
f 68//30 67//30 69//30
f 68//30 69//30 70//30
f 70//31 69//31 71//31
f 70//31 71//31 72//31
f 72//32 71//32 73//32
f 72//32 73//32 74//32
f 75//33 76//33 73//33
f 73//33 76//33 74//33
f 76//34 75//34 77//34
f 76//34 77//34 78//34
f 78//35 77//35 79//35
f 78//35 79//35 80//35
f 80//36 79//36 81//36
f 80//36 81//36 82//36
f 82//37 81//37 83//37
f 82//37 83//37 84//37
f 84//38 83//38 85//38
f 84//38 85//38 86//38
f 86//39 85//39 87//39
f 86//39 87//39 88//39
f 88//40 87//40 89//40
f 88//40 89//40 90//40
f 90//41 89//41 91//41
f 90//41 91//41 92//41
f 92//42 91//42 93//42
f 92//42 93//42 94//42
f 94//43 93//43 95//43
f 94//43 95//43 96//43
f 96//44 95//44 97//44
f 96//44 97//44 98//44
f 98//45 97//45 99//45
f 98//45 99//45 100//45
f 100//46 99//46 101//46
f 100//46 101//46 102//46
f 102//47 101//47 103//47
f 102//47 103//47 104//47
f 104//48 103//48 8//48
f 104//48 8//48 7//48
f 5//2 4//2 105//2
f 5//2 105//2 106//2
f 106//3 105//3 107//3
f 106//3 107//3 108//3
f 108//4 107//4 109//4
f 108//4 109//4 110//4
f 110//5 109//5 111//5
f 110//5 111//5 112//5
f 112//6 111//6 113//6
f 112//6 113//6 114//6
f 114//7 113//7 115//7
f 114//7 115//7 116//7
f 116//8 115//8 117//8
f 116//8 117//8 118//8
f 118//9 117//9 119//9
f 118//9 119//9 120//9
f 120//10 119//10 121//10
f 120//10 121//10 122//10
f 122//11 121//11 123//11
f 122//11 123//11 124//11
f 124//12 123//12 125//12
f 124//12 125//12 126//12
f 126//13 125//13 127//13
f 126//13 127//13 128//13
f 128//14 127//14 129//14
f 128//14 129//14 130//14
f 130//15 129//15 131//15
f 130//15 131//15 132//15
f 132//16 131//16 40//16
f 132//16 40//16 39//16
f 133//49 134//49 135//49
f 133//49 135//49 136//49
f 137//49 138//49 139//49
f 137//49 139//49 140//49
f 134//49 141//49 142//49
f 141//49 134//49 139//49
f 139//49 134//49 143//49
f 139//49 143//49 140//49
f 138//49 144//49 139//49
f 139//49 144//49 145//49
f 139//49 145//49 146//49
f 147//49 148//49 149//49
f 142//49 150//49 134//49
f 134//49 150//49 151//49
f 134//49 151//49 152//49
f 152//49 153//49 134//49
f 134//49 153//49 154//49
f 134//49 154//49 155//49
f 155//49 156//49 134//49
f 134//49 156//49 157//49
f 134//49 157//49 158//49
f 159//49 160//49 135//49
f 135//49 160//49 161//49
f 135//49 161//49 136//49
f 146//49 162//49 139//49
f 139//49 162//49 163//49
f 139//49 163//49 164//49
f 147//49 149//49 163//49
f 163//49 149//49 165//49
f 163//49 165//49 164//49
f 158//49 166//49 134//49
f 134//49 166//49 167//49
f 134//49 167//49 168//49
f 169//49 170//49 171//49
f 171//49 172//49 169//49
f 169//49 172//49 173//49
f 169//49 173//49 174//49
f 170//49 169//49 135//49
f 135//49 169//49 175//49
f 135//49 175//49 176//49
f 168//49 177//49 134//49
f 134//49 177//49 178//49
f 134//49 178//49 135//49
f 176//49 179//49 135//49
f 135//49 179//49 180//49
f 135//49 180//49 159//49
f 181//50 182//50 183//50
f 183//50 182//50 184//50
f 183//50 184//50 185//50
f 186//50 187//50 188//50
f 188//50 187//50 189//50
f 188//50 189//50 185//50
f 185//50 189//50 190//50
f 185//50 190//50 183//50
f 191//50 188//50 192//50
f 192//50 188//50 193//50
f 188//50 194//50 195//50
f 181//50 196//50 182//50
f 182//50 196//50 197//50
f 182//50 197//50 198//50
f 191//50 199//50 188//50
f 188//50 199//50 200//50
f 188//50 200//50 194//50
f 201//50 188//50 202//50
f 202//50 188//50 203//50
f 193//50 204//50 192//50
f 192//50 204//50 205//50
f 192//50 205//50 206//50
f 207//50 208//50 209//50
f 209//50 208//50 210//50
f 209//50 210//50 211//50
f 207//50 209//50 212//50
f 212//50 209//50 213//50
f 212//50 213//50 214//50
f 198//50 215//50 182//50
f 182//50 215//50 216//50
f 182//50 216//50 217//50
f 218//50 219//50 220//50
f 220//50 219//50 221//50
f 220//50 221//50 217//50
f 217//50 221//50 222//50
f 217//50 222//50 182//50
f 195//50 223//50 188//50
f 188//50 223//50 224//50
f 188//50 224//50 203//50
f 201//50 225//50 188//50
f 188//50 225//50 226//50
f 188//50 226//50 186//50
f 214//50 227//50 212//50
f 212//50 227//50 192//50
f 212//50 192//50 228//50
f 228//50 192//50 206//50
f 192//51 43//51 191//51
f 191//51 43//51 37//51
f 188//52 73//52 71//52
f 188//52 71//52 193//52
f 193//53 71//53 69//53
f 193//53 69//53 204//53
f 204//54 69//54 67//54
f 204//54 67//54 205//54
f 205//55 67//55 65//55
f 205//55 65//55 206//55
f 206//56 65//56 63//56
f 206//56 63//56 228//56
f 228//57 63//57 61//57
f 228//57 61//57 212//57
f 212//58 61//58 59//58
f 212//58 59//58 207//58
f 207//59 59//59 57//59
f 207//59 57//59 208//59
f 208//60 57//60 55//60
f 208//60 55//60 210//60
f 210//61 55//61 53//61
f 210//61 53//61 211//61
f 211//62 53//62 51//62
f 211//62 51//62 209//62
f 209//63 51//63 49//63
f 209//63 49//63 213//63
f 213//64 49//64 47//64
f 213//64 47//64 214//64
f 214//65 47//65 45//65
f 214//65 45//65 227//65
f 227//66 45//66 43//66
f 227//66 43//66 192//66
f 191//67 37//67 35//67
f 191//67 35//67 199//67
f 199//68 35//68 33//68
f 199//68 33//68 200//68
f 200//69 33//69 31//69
f 200//69 31//69 194//69
f 194//70 31//70 29//70
f 194//70 29//70 195//70
f 195//71 29//71 27//71
f 195//71 27//71 223//71
f 223//72 27//72 25//72
f 223//72 25//72 224//72
f 224//73 25//73 23//73
f 224//73 23//73 203//73
f 203//74 23//74 21//74
f 203//74 21//74 202//74
f 202//75 21//75 19//75
f 202//75 19//75 201//75
f 201//76 19//76 17//76
f 201//76 17//76 225//76
f 225//77 17//77 15//77
f 225//77 15//77 226//77
f 226//78 15//78 13//78
f 226//78 13//78 186//78
f 186//79 13//79 11//79
f 186//79 11//79 187//79
f 187//80 11//80 9//80
f 187//80 9//80 189//80
f 189//81 9//81 1//81
f 189//81 1//81 190//81
f 185//82 75//82 188//82
f 188//82 75//82 73//82
f 8//83 183//83 1//83
f 1//83 183//83 190//83
f 183//84 8//84 103//84
f 183//84 103//84 181//84
f 181//85 103//85 101//85
f 181//85 101//85 196//85
f 196//86 101//86 99//86
f 196//86 99//86 197//86
f 197//87 99//87 97//87
f 197//87 97//87 198//87
f 198//88 97//88 95//88
f 198//88 95//88 215//88
f 215//89 95//89 93//89
f 215//89 93//89 216//89
f 216//90 93//90 91//90
f 216//90 91//90 217//90
f 217//91 91//91 89//91
f 217//91 89//91 220//91
f 220//92 89//92 87//92
f 220//92 87//92 218//92
f 218//93 87//93 85//93
f 218//93 85//93 219//93
f 219//94 85//94 83//94
f 219//94 83//94 221//94
f 221//95 83//95 81//95
f 221//95 81//95 222//95
f 222//96 81//96 79//96
f 222//96 79//96 182//96
f 182//97 79//97 77//97
f 182//97 77//97 184//97
f 184//98 77//98 75//98
f 184//98 75//98 185//98
f 44//99 135//99 39//99
f 39//99 135//99 178//99
f 135//100 44//100 46//100
f 135//100 46//100 170//100
f 170//101 46//101 48//101
f 170//101 48//101 171//101
f 171//102 48//102 50//102
f 171//102 50//102 172//102
f 172//103 50//103 52//103
f 172//103 52//103 173//103
f 173//104 52//104 54//104
f 173//104 54//104 174//104
f 174//105 54//105 56//105
f 174//105 56//105 169//105
f 169//106 56//106 58//106
f 169//106 58//106 175//106
f 175//107 58//107 60//107
f 175//107 60//107 176//107
f 176//108 60//108 62//108
f 176//108 62//108 179//108
f 179//109 62//109 64//109
f 179//109 64//109 180//109
f 180//110 64//110 66//110
f 180//110 66//110 159//110
f 159//111 66//111 68//111
f 159//111 68//111 160//111
f 160//112 68//112 70//112
f 160//112 70//112 161//112
f 161//113 70//113 72//113
f 161//113 72//113 136//113
f 136//114 72//114 74//114
f 136//114 74//114 133//114
f 141//115 5//115 106//115
f 141//115 106//115 142//115
f 142//116 106//116 108//116
f 142//116 108//116 150//116
f 150//117 108//117 110//117
f 150//117 110//117 151//117
f 151//118 110//118 112//118
f 151//118 112//118 152//118
f 152//119 112//119 114//119
f 152//119 114//119 153//119
f 153//120 114//120 116//120
f 153//120 116//120 154//120
f 154//121 116//121 118//121
f 154//121 118//121 155//121
f 155//122 118//122 120//122
f 155//122 120//122 156//122
f 156//123 120//123 122//123
f 156//123 122//123 157//123
f 157//124 122//124 124//124
f 157//124 124//124 158//124
f 158//125 124//125 126//125
f 158//125 126//125 166//125
f 166//126 126//126 128//126
f 166//126 128//126 167//126
f 167//127 128//127 130//127
f 167//127 130//127 168//127
f 168//128 130//128 132//128
f 168//128 132//128 177//128
f 177//129 132//129 39//129
f 177//129 39//129 178//129
f 76//130 134//130 74//130
f 74//130 134//130 133//130
f 139//131 7//131 141//131
f 141//131 7//131 5//131
f 134//132 76//132 78//132
f 134//132 78//132 143//132
f 143//133 78//133 80//133
f 143//133 80//133 140//133
f 140//134 80//134 82//134
f 140//134 82//134 137//134
f 137//135 82//135 84//135
f 137//135 84//135 138//135
f 138//136 84//136 86//136
f 138//136 86//136 144//136
f 144//137 86//137 88//137
f 144//137 88//137 145//137
f 145//138 88//138 90//138
f 145//138 90//138 146//138
f 146//139 90//139 92//139
f 146//139 92//139 162//139
f 162//140 92//140 94//140
f 162//140 94//140 163//140
f 163//141 94//141 96//141
f 163//141 96//141 147//141
f 147//142 96//142 98//142
f 147//142 98//142 148//142
f 148//143 98//143 100//143
f 148//143 100//143 149//143
f 149//144 100//144 102//144
f 149//144 102//144 165//144
f 165//145 102//145 104//145
f 165//145 104//145 164//145
f 164//146 104//146 7//146
f 164//146 7//146 139//146
f 229//9 6//9 230//9
f 230//9 6//9 3//9
f 231//147 42//147 232//147
f 232//147 42//147 41//147
f 38//49 42//49 231//49
f 230//49 3//49 2//49
f 230//49 2//49 233//49
f 36//49 38//49 2//49
f 38//49 231//49 2//49
f 2//49 231//49 234//49
f 2//49 234//49 233//49
f 2//49 10//49 12//49
f 12//49 14//49 2//49
f 2//49 14//49 16//49
f 2//49 16//49 18//49
f 18//49 20//49 2//49
f 2//49 20//49 22//49
f 2//49 22//49 24//49
f 24//49 26//49 2//49
f 2//49 26//49 28//49
f 2//49 28//49 30//49
f 30//49 32//49 2//49
f 2//49 32//49 34//49
f 2//49 34//49 36//49
f 232//50 41//50 40//50
f 4//50 6//50 40//50
f 40//50 6//50 229//50
f 229//50 235//50 40//50
f 40//50 235//50 236//50
f 40//50 236//50 232//50
f 109//50 107//50 40//50
f 40//50 107//50 105//50
f 40//50 105//50 4//50
f 115//50 113//50 40//50
f 40//50 113//50 111//50
f 40//50 111//50 109//50
f 125//50 123//50 121//50
f 115//50 40//50 117//50
f 117//50 40//50 131//50
f 117//50 131//50 129//50
f 129//50 127//50 117//50
f 117//50 127//50 125//50
f 117//50 125//50 119//50
f 119//50 125//50 121//50
f 231//148 232//148 234//148
f 234//148 232//148 236//148
f 234//149 236//149 233//149
f 233//149 236//149 235//149
f 233//150 235//150 230//150
f 230//150 235//150 229//150
